<?xml version="1.0" encoding="UTF-8"?>
<svg version="1.1" viewBox="0 0 1974 2048" width="589" height="611" xmlns="http://www.w3.org/2000/svg">
<path transform="translate(0)" d="m0 0h1974v2048h-1974z"/>
<path transform="translate(0)" d="m0 0h1974v2048h-1974zm981 71-53 4-42 5-36 6-49 11-41 11-42 13-30 11-24 10-29 13-34 16-23 12-23 13-22 13-20 12-23 16-12 8-13 10-16 12-14 11-14 12-11 9-15 13-13 12-8 7-41 41-7 8-12 13-11 13-8 10-10 12-15 20-13 17-11 16-12 18-11 17-17 28-14 26-10 19-15 30-15 34-15 38-17 50-10 36-7 28-8 38-6 36-5 39-4 49v79l2 41 3 35 6 45 8 44 8 36 8 30 8 27 12 36 19 49 16 35 14 29 11 21 14 24 13 22 17 26 9 13 12 17 14 19 20 25 11 13 12 14 10 11 7 8 20 20 7 8 10 9 17 17 11 9 11 10 11 9 13 11 13 10 15 12 14 10 17 12 15 10 22 14 24 14 25 14 41 21 37 17 49 19 38 13 47 13 42 10 43 8 37 5 30 3 53 3 30 1h35l32-2 45-4 48-7 42-8 50-12 36-11 36-12 31-12 26-11 29-13 36-18 23-13 14-8 38-24 21-14 18-13 12-9 13-10 16-13 17-14 10-9 8-7 20-18 42-42 9-11 12-13 9-11 9-10 10-13 11-14 14-19 13-18 9-14 10-15 15-25 13-23 10-19 15-29 16-35 4-9-1-4-24 16-28 17-23 13-27 14-28 13-36 15-36 13-15 5-4-2-14-19-14-20-9-16-10-21-6-18-3-13-1-8v-16l3-16 8-17 8-10 12-11 20-12 14-6 16-6 32-8 25-4 33-3 11-4 8-6 6-9 2-5 1-12-2-9-6-10-8-7-25-13-25-15-17-12-14-12-13-12-9-10-9-13-8-16-4-12-1-7v-18l3-13 6-13 7-12 11-14 10-11 8-7 11-9 16-11 15-10 23-12 18-10 7-7 4-8 2-8v-8l-3-10-7-10-9-6-9-3-51-6-20-4-24-7-20-8-17-9-14-11-7-7-9-12-7-16-2-9v-22l4-20 7-19 12-25 10-16 13-18 11-14 11-13 6-9 3-8v-14l-5-12-9-9-8-4-4-1h-12l-36 11-28 6-27 4h-35l-22-4-12-4-12-6-10-8-9-10-8-16-4-11-3-14-1-7v-36l3-22 5-24 9-31 3-9 1-6v-10l-3-10-7-9-10-6-6-2h-13l-11 4-13 10-14 12-19 14-18 11-20 11-23 9-15 4-18 2h-12l-15-3-14-7-14-11-10-12-8-13-8-16-9-25-5-21-4-24-4-37-3-10-5-8-8-7-9-4-4-1h-8l-11 3-8 6-7 8-10 20-11 19-12 18-9 12-12 14-16 16-13 10-15 8-20 6-6 1h-10l-15-3-16-6-10-6-14-11-19-19-11-14-13-18-14-24-13-24-9-10-10-5-5-1-13 1-12 6-7 7-5 10-1 4-4 40-6 32-6 21-9 22-9 17-11 14-9 9-14 9-9 4-7 2-14 1 10-24 13-29 11-23 12-22 10-18 14-23 18-27 12-17 10-13 11-14 8-10 9-11 11-13 8-8 7-8 15-16 13-13 8-7 15-14 10-9 17-14 12-9 13-10 17-13 1-2z" fill="#FEFEFE"/>
<path transform="translate(852,368)" d="m0 0 6 5 9 11 21 21 16 12 15 10 16 8 16 6 22 5h38l24-6 16-6 19-10 11-8 12-9 10-9 16-16 7-8 4-6 3 1 9 27 9 20 10 18 12 17 12 13 7 7 12 9 10 7 20 9 20 6 11 2 20 1 18-1 22-4 24-7 30-13 9-5h2l-1 21v27l3 26 6 24 8 20 8 14 8 11 9 10 5 5 9 8 13 9 16 8 15 6 18 5 26 4h40l15-1-9 19-10 23-7 24-4 22-1 21 2 23 4 16 8 20 8 14 10 14 16 16 13 10 17 11 14 8 28 11 16 5v3l-10 9-8 7-18 18-12 16-10 15-10 21-6 18-3 17-1 12v10l2 18 4 18 6 15 8 16 10 16 8 10 12 14 15 15 11 9 3 2v2l-28 10-18 8-18 10-16 11-13 11-9 9-10 13-9 14-7 16-5 16-3 18v32l4 24 6 21 8 20 11 22v3l-22-1h-25l-21 2-21 4-17 6-19 9-21 14-10 9-9 11-2 2h-19l-44-4-44-6-22-4 5-5 11-8 17-13 15-13 8-7 13-12 25-25 9-11 9-10 13-17 9-12 11-16 11-17 13-23 10-19 13-29 9-24 9-27 8-30 7-35 5-38 2-34v-22l-3-43-5-38-5-26-8-32-9-29-10-26-11-25-16-32-14-23-20-30-13-17-9-11-11-13-11-12-31-31-11-9-14-12-13-10-18-13-19-12-26-15-23-12-22-10-31-12-34-11-27-7-30-6-28-4-28-2h-63l-36 3-30 5-32 7-30 9-32 11-24 10-31 15-23 13-22 13-17 12-16 12-15 12h-1v-11l5-41 6-35 7-33 9-35 1-2 40-1 21-5 15-5 19-10 14-10 13-12 12-13 13-20 11-21 8-20z" fill="#FEFEFE"/>
<path transform="translate(978,605)" d="m0 0h28l41 3 28 4 23 5 36 10 28 10 23 10 25 12 20 11 27 18 14 10 16 13 11 9 13 12 25 25 5 6v2h-40l-4-1-3 14-6 24-3-1-7-8-14-14-8-7-11-10-20-15-16-11-15-9-17-10-32-15-13-3-9 1-12 6-6 5-5 10-1 3v15l4 10 7 8 10 6 20 9 20 11 19 12 14 10 16 13 11 11 8 7 9 10 11 12 13 17 5 7v7l-17 66-28 110-14 54-16 64-11 46-10 49-4 29-2 4-11-55-7-31-9-35-11-38-15-49-22-72-16-52-12-40-8-25-21-69-16-52-8-27-80-1-1 7-13 44-12 41-21 71-17 58-21 71-34 116-6 23-5-5-13-18-13-20-12-19-15-27-10-19-11-22-5-15-11-42-18-70-14-55-16-62-7-29-3-17v-21l7-8h2l2-4 16-16 11-9 9-8 14-11 18-13 23-15 22-12 16-8 17-8 28-11 24-8 39-10 29-5 34-3z" fill="#FEFEFE"/>
<path transform="translate(1368,798)" d="m0 0 3 3 18 27 10 18 12 23 12 26 10 28 9 31 6 27 4 24 3 27 2 29v27l-2 29-3 23-5 28-7 28-8 26-8 21-8 18-11 23-12 22-12 19-12 17-12 16-9 11-10 11-7 8-29 29-22 18-17 13-15 10-17 11-22 12-8 4-7-1-26-9-28-11-25-11-29-14-20-10-19-11-20-12-20-13-19-13-16-12-13-10-18-14-28-24-15-14-17-16-14-15-12-13 2-9 27-92 16-54 30-102 17-59 11-44 7-33 2-13 2 2 9 39 14 51 17 56 26 86 15 50 17 56 13 43 14 47 21 69 15 50 1 2h74l2-10 10-37 11-42 49-183 15-56 24-90 6-23 1-2h10l13-4 8-6 6-9 3-13-1-9-7-17-10-20 1-9 15-56 6-21z" fill="#FEFEFE"/>
</svg>
